<svg width="128" height="128" viewBox="0 0 128 128" fill="none" xmlns="http://www.w3.org/2000/svg">
  <!-- Background circle for depth -->
  <circle cx="64" cy="64" r="60" fill="url(#bgGradient)" opacity="0.1"/>
  
  <!-- Main central star with gradient -->
  <path d="M64 8L69.81 49.36L112 52L69.81 54.64L64 96L58.19 54.64L16 52L58.19 49.36L64 8Z" 
        fill="url(#mainGradient)" stroke="url(#mainStroke)" stroke-width="1"/>
  
  <!-- Large top right sparkle -->
  <path d="M100 24L103.46 43.62L124 44L103.46 44.38L100 64L96.54 44.38L76 44L96.54 43.62L100 24Z" 
        fill="url(#sparkle1Gradient)" stroke="#6b46c1" stroke-width="0.8"/>
  
  <!-- Large bottom left sparkle -->
  <path d="M28 80L31.46 99.62L52 100L31.46 100.38L28 120L24.54 100.38L4 100L24.54 99.62L28 80Z" 
        fill="url(#sparkle2Gradient)" stroke="#7c3aed" stroke-width="0.8"/>
  
  <!-- Medium sparkles -->
  <path d="M96 80L97.6 89.6L108 90L97.6 90.4L96 100L94.4 90.4L84 90L94.4 89.6L96 80Z" fill="#fbbf24" stroke="#f59e0b" stroke-width="0.5"/>
  <path d="M32 32L33.6 41.6L44 42L33.6 42.4L32 52L30.4 42.4L20 42L30.4 41.6L32 32Z" fill="#10b981" stroke="#059669" stroke-width="0.5"/>
  <path d="M108 108L109.2 114.4L116 115L109.2 115.6L108 122L106.8 115.6L100 115L106.8 114.4L108 108Z" fill="#ef4444" stroke="#dc2626" stroke-width="0.4"/>
  
  <!-- Small accent sparkles -->
  <circle cx="104" cy="104" r="3" fill="#ef4444" stroke="#dc2626" stroke-width="0.3"/>
  <circle cx="24" cy="24" r="2.5" fill="#06b6d4" stroke="#0891b2" stroke-width="0.3"/>
  <circle cx="112" cy="16" r="2" fill="#f59e0b" stroke="#d97706" stroke-width="0.3"/>
  <circle cx="16" cy="112" r="2" fill="#ec4899" stroke="#db2777" stroke-width="0.3"/>
  <circle cx="80" cy="32" r="1.8" fill="#a78bfa" stroke="#8b5cf6" stroke-width="0.2"/>
  <circle cx="48" cy="96" r="1.8" fill="#34d399" stroke="#10b981" stroke-width="0.2"/>
  
  <!-- Tiny sparkles for magic effect -->
  <circle cx="88" cy="20" r="1.2" fill="#fbbf24"/>
  <circle cx="40" cy="108" r="1.2" fill="#34d399"/>
  <circle cx="20" cy="60" r="1" fill="#a78bfa"/>
  <circle cx="108" cy="68" r="1" fill="#fb7185"/>
  <circle cx="72" cy="20" r="0.8" fill="#06b6d4"/>
  <circle cx="56" cy="108" r="0.8" fill="#f59e0b"/>
  
  <!-- Gradient definitions -->
  <defs>
    <linearGradient id="bgGradient" x1="0%" y1="0%" x2="100%" y2="100%">
      <stop offset="0%" style="stop-color:#667eea;stop-opacity:1" />
      <stop offset="100%" style="stop-color:#764ba2;stop-opacity:1" />
    </linearGradient>
    
    <linearGradient id="mainGradient" x1="0%" y1="0%" x2="100%" y2="100%">
      <stop offset="0%" style="stop-color:#667eea;stop-opacity:1" />
      <stop offset="50%" style="stop-color:#764ba2;stop-opacity:1" />
      <stop offset="100%" style="stop-color:#5a67d8;stop-opacity:1" />
    </linearGradient>
    
    <linearGradient id="mainStroke" x1="0%" y1="0%" x2="100%" y2="100%">
      <stop offset="0%" style="stop-color:#5a67d8;stop-opacity:1" />
      <stop offset="100%" style="stop-color:#4f46e5;stop-opacity:1" />
    </linearGradient>
    
    <linearGradient id="sparkle1Gradient" x1="0%" y1="0%" x2="100%" y2="100%">
      <stop offset="0%" style="stop-color:#764ba2;stop-opacity:1" />
      <stop offset="100%" style="stop-color:#6b46c1;stop-opacity:1" />
    </linearGradient>
    
    <linearGradient id="sparkle2Gradient" x1="0%" y1="0%" x2="100%" y2="100%">
      <stop offset="0%" style="stop-color:#9333ea;stop-opacity:1" />
      <stop offset="100%" style="stop-color:#7c3aed;stop-opacity:1" />
    </linearGradient>
  </defs>
</svg> 